<?xml version="1.0" encoding="UTF-8"?>
<svg width="771.99" height="533.33" version="1.1" viewBox="0 0 771.99 533.33" xml:space="preserve" xmlns="http://www.w3.org/2000/svg" xmlns:osb="http://www.openswatchbook.org/uri/2009/osb" xmlns:xlink="http://www.w3.org/1999/xlink">
  



  



  <defs><linearGradient id="l" osb:paint="solid"><stop stop-color="#6bc6c0" offset="0"/></linearGradient><linearGradient id="q" osb:paint="solid"><stop stop-color="#53bcb5" offset="0"/></linearGradient><linearGradient id="m" osb:paint="solid"><stop stop-color="#3ab3ab" offset="0"/></linearGradient><linearGradient id="h" osb:paint="solid"><stop stop-color="#22aaa1" offset="0"/></linearGradient><linearGradient id="p" osb:paint="solid"><stop stop-color="#1e978f" offset="0"/></linearGradient><linearGradient id="j" osb:paint="solid"><stop stop-color="#1a847d" offset="0"/></linearGradient><linearGradient id="c" osb:paint="solid"><stop stop-color="#16716b" offset="0"/></linearGradient><linearGradient id="e" osb:paint="solid"><stop stop-color="#22222a" offset="0"/></linearGradient><linearGradient id="f" osb:paint="solid"><stop stop-color="#5a5a62" offset="0"/></linearGradient><linearGradient id="n" osb:paint="solid"><stop stop-color="#43434c" offset="0"/></linearGradient><linearGradient id="k" osb:paint="solid"><stop stop-color="#2c2c36" offset="0"/></linearGradient><linearGradient id="g" osb:paint="solid"><stop stop-color="#272730" offset="0"/></linearGradient><linearGradient id="db" x1="2843.6" x2="3104.5" y1="1110.2" y2="1110.2" gradientUnits="userSpaceOnUse"><stop stop-color="#fad644" offset="0"/></linearGradient><linearGradient id="da" x1="3175.7" x2="3207.2" y1="796.36" y2="796.36" gradientUnits="userSpaceOnUse"><stop stop-color="#e59c13" offset="0"/></linearGradient><linearGradient id="cz" x1="2994.1" x2="3045.8" y1="854.37" y2="854.37" gradientUnits="userSpaceOnUse"><stop stop-color="#e59c13" offset="0"/></linearGradient><linearGradient id="cy" x1="3118.7" x2="3630" y1="780.02" y2="780.02" gradientUnits="userSpaceOnUse"><stop stop-color="#efae15" offset="0"/></linearGradient><linearGradient id="cx" x1="3118.7" x2="3630" y1="779.98" y2="779.98" gradientUnits="userSpaceOnUse"><stop stop-color="#e59c13" offset="0"/></linearGradient><linearGradient id="cw" x1="3045.8" x2="3123.7" y1="837.44" y2="837.44" gradientUnits="userSpaceOnUse"><stop stop-color="#e59c13" offset="0"/></linearGradient><linearGradient id="cv" x1="3146.6" x2="3175.7" y1="795.69" y2="795.69" gradientUnits="userSpaceOnUse"><stop stop-color="#eaa710" offset="0"/></linearGradient><linearGradient id="cu" x1="3437.1" x2="3502.6" y1="594.42" y2="594.42" gradientUnits="userSpaceOnUse"><stop stop-color="#eaa710" offset="0"/></linearGradient><linearGradient id="ct" x1="3206.9" x2="3281.1" y1="725.03" y2="725.03" gradientUnits="userSpaceOnUse"><stop stop-color="#eaa710" offset="0"/></linearGradient><linearGradient id="cs" x1="3281.1" x2="3326.6" y1="716.76" y2="716.76" gradientUnits="userSpaceOnUse"><stop stop-color="#e59c13" offset="0"/></linearGradient><linearGradient id="cr" x1="3368.2" x2="3411.6" y1="663.61" y2="663.61" gradientUnits="userSpaceOnUse"><stop stop-color="#eaa710" offset="0"/></linearGradient><linearGradient id="cq" x1="3411.6" x2="3437.3" y1="658.54" y2="658.54" gradientUnits="userSpaceOnUse"><stop stop-color="#e59c13" offset="0"/></linearGradient><linearGradient id="cp" x1="3502.6" x2="3743.4" y1="575.7" y2="575.7" gradientUnits="userSpaceOnUse"><stop stop-color="#e59c13" offset="0"/></linearGradient><linearGradient id="co" x1="2994.1" x2="3743.4" y1="783.65" y2="783.65" gradientUnits="userSpaceOnUse"><stop stop-color="#fad644" offset="0"/></linearGradient><linearGradient id="cn" x1="2994.1" x2="3743.4" y1="730.83" y2="730.83" gradientUnits="userSpaceOnUse"><stop stop-color="#efae15" offset="0"/></linearGradient><linearGradient id="cm" x1="2628" x2="3104.5" y1="1110.2" y2="1110.2" gradientUnits="userSpaceOnUse"><stop stop-color="#e59c13" offset="0"/></linearGradient><linearGradient id="cl" x1="2627.9" x2="3104.6" y1="1046.5" y2="1046.5" gradientUnits="userSpaceOnUse"><stop stop-color="#efae15" offset="0"/></linearGradient><linearGradient id="ck" x1="2726.9" x2="2912.8" y1="1050.5" y2="1050.5" gradientUnits="userSpaceOnUse"><stop stop-color="#e59c13" offset="0"/></linearGradient><linearGradient id="cj" x1="2595.9" x2="3136.7" y1="1046.5" y2="1046.5" gradientUnits="userSpaceOnUse"><stop stop-color="#fad644" offset="0"/></linearGradient><linearGradient id="ci" x1="2595.9" x2="2843.6" y1="932.08" y2="932.08" gradientUnits="userSpaceOnUse"><stop stop-color="#fad644" offset="0"/></linearGradient><linearGradient id="ch" x1="2595.9" x2="3136.7" y1="973.24" y2="973.24" gradientUnits="userSpaceOnUse"><stop stop-color="#e59c13" offset="0"/></linearGradient><linearGradient id="cd" x1="5037" x2="5096.6" y1="2077.3" y2="2077.3" gradientUnits="userSpaceOnUse"><stop stop-color="#fff" offset="0"/></linearGradient><linearGradient id="cb" x1="5014.4" x2="5145.9" y1="2149" y2="2149" gradientUnits="userSpaceOnUse"><stop stop-color="#eb8b8a" offset="0"/></linearGradient><linearGradient id="ca" x1="4921.3" x2="4979.1" y1="1518.1" y2="1518.1" gradientUnits="userSpaceOnUse"><stop stop-color="#fab6a9" offset="0"/></linearGradient><linearGradient id="bz" x1="5294.9" x2="5352.7" y1="1408.7" y2="1408.7" gradientUnits="userSpaceOnUse"><stop stop-color="#fab6a9" offset="0"/></linearGradient><linearGradient id="bt" x1="5102" x2="5137.5" y1="1068.5" y2="1068.5" gradientUnits="userSpaceOnUse"><stop stop-color="#d67f1c" offset="0"/></linearGradient><linearGradient id="bq" x1="5280.7" x2="5355.3" y1="1586.6" y2="1586.6" gradientUnits="userSpaceOnUse"><stop stop-color="#fab6a9" offset="0"/></linearGradient><linearGradient id="bp" x1="5105.7" x2="5163.5" y1="2035.1" y2="2035.1" gradientUnits="userSpaceOnUse"><stop stop-color="#eb8b8a" offset="0"/></linearGradient><linearGradient id="bo" x1="5103.2" x2="5169.2" y1="2036" y2="2036" gradientUnits="userSpaceOnUse"><stop stop-color="#fab6a9" offset="0"/></linearGradient><linearGradient id="bn" x1="5090.2" x2="5189.4" y1="1988.6" y2="1988.6" gradientUnits="userSpaceOnUse"><stop stop-color="#fab6a9" offset="0"/></linearGradient><linearGradient id="bm" x1="5070.4" x2="5209.3" y1="1988.6" y2="1988.6" gradientUnits="userSpaceOnUse"><stop stop-color="#fff" offset="0"/></linearGradient><linearGradient id="bj" x1="4930.1" x2="5011.3" y1="1697.9" y2="1697.9" gradientUnits="userSpaceOnUse"><stop stop-color="#fab6a9" offset="0"/></linearGradient><linearGradient id="bi" x1="4985.9" x2="5270.3" y1="1126.7" y2="1126.7" gradientUnits="userSpaceOnUse"><stop stop-color="#fad644" offset="0"/></linearGradient><linearGradient id="ai" x1="3741.2" x2="3859.9" y1="1258.7" y2="1258.7" gradientUnits="userSpaceOnUse"><stop stop-color="#6385b7" offset="0"/></linearGradient><linearGradient id="ah" x1="3580.1" x2="3741.2" y1="1348.9" y2="1348.9" gradientUnits="userSpaceOnUse"><stop stop-color="#899abf" offset="0"/></linearGradient><linearGradient id="x" x1="4186.9" x2="4231.6" y1="1744" y2="1744" gradientUnits="userSpaceOnUse"><stop stop-color="#263c7a" offset="0"/></linearGradient><linearGradient id="u" x1="4186.9" x2="4231.6" y1="2168.5" y2="2168.5" gradientUnits="userSpaceOnUse"><stop stop-color="#d9effb" offset="0"/></linearGradient><linearGradient id="r" x1="4186.9" x2="4231.6" y1="2593.1" y2="2593.1" gradientUnits="userSpaceOnUse"><stop stop-color="#263c7a" offset="0"/></linearGradient><linearGradient id="i" x1="3580" x2="5123" y1="3036.6" y2="3036.6" gradientUnits="userSpaceOnUse"><stop stop-color="#fcfeff" offset="0"/></linearGradient><linearGradient id="o" x1="5014.4" x2="5211.2" y1="2136.8" y2="2136.8" gradientUnits="userSpaceOnUse"><stop stop-color="#fab6a9" offset="0"/></linearGradient><linearGradient id="d" x1="278.23" x2="523.59" y1="142.3" y2="142.3" gradientUnits="userSpaceOnUse"><stop stop-color="#fff" offset="0"/></linearGradient></defs>



  <g transform="matrix(.13333 0 0 -.13333 -.00052083 533.33)"><path d="m5299.5 612.51c-97.43-56.25-255.39-56.25-352.83 0-97.42 56.25-97.43 147.45 0 203.7s255.39 56.25 352.83 0c97.43-56.25 97.43-147.45 0-203.7" fill="#e6e6e6"/><path d="m4461.5 717.98-809.15 461.39c-29.6 17.09-25.89 46.94 8.28 66.66l465.56 268.79c34.17 19.73 85.86 21.87 115.46 4.79l809.15-461.39c29.6-17.08 25.89-46.92-8.29-66.65l-465.56-268.8c-34.17-19.731-85.86-21.872-115.45-4.79" fill="#e6e6e6"/><path d="m5123 1213.5v1889l-750.97 196.56-138.33 79.86c-31.74 18.33-87.19 16.04-123.85-5.14l-129.05-74.51-400.55 0.23 118.6-1823.6c-0.9-12.41 6.02-24.38 21.27-33.18l749.43-565.48c31.74-18.329 87.19-16.028 123.85 5.14l499.45 288.35c21.14 12.2 31.34 28.01 30.15 42.74" fill="url(#j)"/><path d="m4176.2 3391.2c-23.24-0.56-47.35-6.42-66.39-17.42l-129.05-74.51-400.55 0.23v-1894.1c-0.91-12.41 6.01-24.38 21.27-33.18l868.03-494.96c15.25-8.809 35.99-12.797 57.48-12.278l8.94 1905.9-359.73 620.29" fill="url(#l)"/><path d="m4477.5 873.4c27.39-11.718 67-11.066 99.01 1.141v1919h-99.01v-1920.1" fill="url(#h)"/><path d="m4469.5 2770.8-868.03 494.96c-31.75 18.32-27.78 50.34 8.88 71.5l499.45 288.35c36.66 21.16 92.11 23.47 123.86 5.14l868.02-494.96c31.75-18.33 27.77-50.35-8.88-71.51l-499.45-288.36c-36.66-21.16-92.11-23.45-123.85-5.12" fill="url(#l)"/>



      <path d="m5092.8 3099.4-499.45-288.35c-36.66-21.16-92.11-23.47-123.85-5.14l-868.03 494.97c-7.08 4.09-12.29 8.87-15.84 14.05-10.91-17.55-5.97-36.59 15.84-49.17l868.03-494.96c31.74-18.33 87.19-16.04 123.85 5.12l499.45 288.36c28.47 16.45 37.14 39.42 24.72 57.45-4.97-8-13.24-15.7-24.72-22.33" fill="url(#i)"/>



      <path d="m4494.1 2971.3-577.91 335c-14.86 8.58-13 23.56 4.16 33.47l233.71 134.93c17.16 9.9 43.1 10.98 57.96 2.4l577.92-335c14.85-8.57 12.98-23.55-4.16-33.46l-233.72-134.93c-17.15-9.91-43.1-10.98-57.96-2.41" fill="url(#c)"/><g fill="#fff">



      <path d="m4182.1 3291.3-33.48 19.33c-2.06 1.19-1.8 3.26 0.57 4.63l32.34 18.67c2.37 1.37 5.96 1.53 8.02 0.33l33.48-19.33c2.06-1.18 1.8-3.26-0.57-4.63l-32.34-18.67c-2.37-1.37-5.97-1.52-8.02-0.33"/>



      <path d="m4293.9 3227-33.49 19.33c-2.05 1.18-1.79 3.27 0.58 4.63l32.33 18.68c2.38 1.36 5.97 1.51 8.02 0.33l33.49-19.34c2.06-1.19 1.8-3.26-0.57-4.63l-32.34-18.67c-2.38-1.37-5.96-1.52-8.02-0.33"/>



      <path d="m4405.8 3162.6-33.49 19.33c-2.05 1.19-1.8 3.26 0.57 4.63l32.35 18.67c2.37 1.37 5.95 1.52 8.02 0.33l33.48-19.33c2.05-1.18 1.8-3.26-0.57-4.63l-32.34-18.67c-2.37-1.37-5.97-1.52-8.02-0.33"/>



      <path d="m4517.7 3098.3-33.49 19.34c-2.06 1.18-1.79 3.26 0.58 4.63l32.33 18.67c2.38 1.37 5.97 1.52 8.02 0.33l33.49-19.33c2.06-1.19 1.79-3.26-0.58-4.63l-32.33-18.67c-2.38-1.37-5.97-1.51-8.02-0.34"/>



      </g><path d="m3916.2 3306.3 0.68-0.39c1.12 0.8 2.17 1.64 3.48 2.39l233.71 134.94c17.16 9.9 43.1 10.97 57.96 2.4l577.23-334.61c13.69 9.81 14.41 23.14 0.69 31.07l-577.92 335c-14.86 8.58-40.8 7.5-57.96-2.4l-233.71-134.93c-17.16-9.91-19.02-24.89-4.16-33.47" fill="url(#q)"/>



      <path d="m4373.6 2396.5-641.39 370.3c-18.5 10.68-33.49 39.32-33.49 63.98v117.5c0 24.66 14.99 35.98 33.49 25.31l641.39-370.31c18.49-10.68 33.48-39.32 33.48-63.97v-117.51c0-24.65-14.99-35.98-33.48-25.3" fill="url(#h)"/>



      <path d="m4325.1 2500.4-30.15 17.4c-4.03 2.33-7.29 8.57-7.29 13.94v32.2c0 5.37 3.26 7.84 7.29 5.52l30.15-17.4c4.02-2.33 7.3-8.58 7.3-13.95v-32.2c0-5.37-3.28-7.84-7.3-5.51" fill="url(#c)"/>



      <path d="m4224.3 2558.6-30.14 17.4c-4.03 2.33-7.3 8.57-7.3 13.95v32.19c0 5.38 3.27 7.85 7.3 5.52l30.14-17.4c4.03-2.33 7.3-8.57 7.3-13.94v-32.2c0-5.37-3.27-7.84-7.3-5.52" fill="url(#r)"/>



      <path d="m4373.6 1971.9-641.39 370.31c-18.5 10.68-33.49 39.31-33.49 63.97v117.51c0 24.65 14.99 35.98 33.49 25.3l641.39-370.3c18.49-10.68 33.48-39.32 33.48-63.98v-117.5c0-24.66-14.99-35.98-33.48-25.31" fill="url(#h)"/>



      <path d="m4325.1 2075.8-30.15 17.4c-4.03 2.32-7.29 8.56-7.29 13.94v32.19c0 5.38 3.26 7.85 7.29 5.52l30.15-17.4c4.02-2.33 7.3-8.57 7.3-13.94v-32.2c0-5.38-3.28-7.85-7.3-5.51" fill="url(#c)"/>



      <path d="m4224.3 2134-30.14 17.4c-4.03 2.34-7.3 8.58-7.3 13.95v32.19c0 5.38 3.27 7.85 7.3 5.52l30.14-17.4c4.03-2.32 7.3-8.57 7.3-13.95v-32.19c0-5.37-3.27-7.84-7.3-5.52" fill="url(#u)"/>



      <path d="m4373.6 1547.4-641.39 370.31c-18.5 10.67-33.49 39.32-33.49 63.97v117.51c0 24.65 14.99 35.98 33.49 25.31l641.39-370.31c18.49-10.68 33.48-39.32 33.48-63.97v-117.51c0-24.66-14.99-35.99-33.48-25.31" fill="url(#h)"/>



      <path d="m4325.1 1651.2-30.15 17.4c-4.03 2.32-7.29 8.57-7.29 13.94v32.2c0 5.37 3.26 7.84 7.29 5.52l30.15-17.4c4.02-2.34 7.3-8.58 7.3-13.95v-32.2c0-5.37-3.28-7.84-7.3-5.51" fill="#fff"/>



      <path d="m4224.3 1709.4-30.14 17.4c-4.03 2.33-7.3 8.57-7.3 13.94v32.19c0 5.39 3.27 7.86 7.3 5.52l30.14-17.4c4.03-2.32 7.3-8.56 7.3-13.95v-32.18c0-5.38-3.27-7.86-7.3-5.52" fill="url(#x)"/>



      <path d="m4373.6 1122.8-641.39 370.3c-18.5 10.67-33.49 39.32-33.49 63.98v117.5c0 24.65 14.99 35.98 33.49 25.31l641.39-370.3c18.49-10.69 33.48-39.32 33.48-63.98v-117.51c0-24.65-14.99-35.99-33.48-25.3" fill="url(#h)"/>



      <path d="m4325.1 1226.7-30.15 17.41c-4.03 2.32-7.29 8.56-7.29 13.93v32.2c0 5.37 3.26 7.84 7.29 5.52l30.15-17.4c4.02-2.33 7.3-8.57 7.3-13.95v-32.2c0-5.37-3.28-7.84-7.3-5.51" fill="#fff"/>



      <path d="m4224.3 1284.9-30.14 17.4c-4.03 2.33-7.3 8.58-7.3 13.95v32.19c0 5.37 3.27 7.85 7.3 5.52l30.14-17.4c4.03-2.34 7.3-8.58 7.3-13.95v-32.19c0-5.37-3.27-7.85-7.3-5.52" fill="#fff"/><g fill="url(#c)">



      <path d="m4690.9 2396.5 328.59 188.12c18.48 10.68 33.47 39.32 33.47 63.98v117.5c0 24.66-14.99 35.99-33.47 25.31l-328.59-188.13c-18.49-10.68-33.48-39.32-33.48-63.97v-117.51c0-24.65 14.99-35.98 33.48-25.3"/>



      <path d="m4690.9 1971.9 328.59 188.13c18.48 10.68 33.47 39.32 33.47 63.97v117.51c0 24.65-14.99 35.99-33.47 25.3l-328.59-188.12c-18.49-10.68-33.48-39.32-33.48-63.98v-117.5c0-24.66 14.99-35.98 33.48-25.31"/>



      <path d="m4690.9 1547.4 328.59 188.13c18.48 10.68 33.47 39.32 33.47 63.97v117.51c0 24.66-14.99 35.98-33.47 25.31l-328.59-188.13c-18.49-10.68-33.48-39.32-33.48-63.97v-117.51c0-24.66 14.99-35.99 33.48-25.31"/>



      <path d="m4690.9 1122.8 328.59 188.12c18.48 10.68 33.47 39.32 33.47 63.98v117.5c0 24.66-14.99 35.98-33.47 25.31l-328.59-188.12c-18.49-10.69-33.48-39.32-33.48-63.98v-117.51c0-24.65 14.99-35.99 33.48-25.3"/>



      </g><path d="m0.0039062 4e3v-1047.7c95.547-73.12 223.1-93.05 337.7-49.82l579.08 218.4c94.599 35.69 169.27 110.36 204.95 204.95l218.41 579.09c11.7 31.02 18.66 63 21.32 95.05h-1361.5" fill="#54457f"/>



      <path d="m841.46 704.45c-17.707 63.59-67.981 112.91-131.91 129.37l-390 100.46c-63.926 16.469-131.77-2.422-177.99-49.551l-141.56-144.33v-740.39h768.46l134.91 137.54c46.219 47.121 63.785 115.33 46.082 178.92l-108 387.98" fill="url(#k)"/>



      <path d="m3741.2 1292.6-139.77 79.7 139.77-79.7m-161.12 110.71c0 0.67 0.02 1.35 0.07 2.03-0.05-0.68-0.07-1.36-0.07-2.03" fill="url(#ah)"/>



      <path d="m3859.9 1224.9-118.66 67.66 118.66-67.66" fill="url(#ai)"/>



      <path d="m3859.9 1224.9-258.43 147.36c-14.36 8.29-21.34 19.38-21.35 31.01 0 0.67 0.02 1.35 0.07 2.03 0 0.05 0 0.1 0.01 0.14v1682.2c117.34-61.7 234.98-133.63 351.9-215.62l112.19-78.68-312.08 180.19c-4.72 2.73-9.22 4.02-13.29 4.02-11.89 0-20.2-10.97-20.2-29.33v-117.5c0-24.66 14.99-53.3 33.49-63.98l526.79-304.14v-217.77l-526.79 304.14c-4.73 2.73-9.22 4.02-13.3 4.02-11.88 0-20.19-10.97-20.19-29.32v-117.51c0-24.66 14.99-53.29 33.49-63.97l526.79-304.14v-217.78l-526.79 304.15c-4.72 2.72-9.22 4.02-13.29 4.02-11.89 0-20.2-10.97-20.2-29.33v-117.51c0-24.65 14.99-53.3 33.49-63.97l511.63-295.39c-11.55-54.42-31.78-118.19-67.21-178.97l-444.42 256.59c-4.72 2.72-9.22 4.02-13.29 4.02-11.89 0-20.2-10.97-20.2-29.33v-117.5c0-24.66 14.99-53.31 33.49-63.98l322.96-186.46c-51.19-37.54-115.22-66.85-195.27-81.75" fill="url(#p)"/>



      <path d="m4259 2462.6-526.79 304.14c-18.5 10.68-33.49 39.32-33.49 63.98v117.5c0 18.36 8.31 29.33 20.2 29.33 4.07 0 8.57-1.29 13.29-4.02l312.08-180.19 214.71-150.55v-180.19m-67.73 165.84c-2.6 0-4.41-2.39-4.41-6.4v-32.19c0-5.38 3.27-11.62 7.3-13.95l30.14-17.4c1.03-0.59 2.01-0.87 2.9-0.87 2.59 0 4.4 2.39 4.4 6.39v32.2c0 5.37-3.27 11.61-7.3 13.94l-30.14 17.4c-1.03 0.6-2.01 0.88-2.89 0.88" fill="url(#j)"/>



      <path d="m4227.2 2557.7c-0.89 0-1.87 0.28-2.9 0.87l-30.14 17.4c-4.03 2.33-7.3 8.57-7.3 13.95v32.19c0 4.01 1.81 6.4 4.41 6.4 0.88 0 1.86-0.28 2.89-0.88l30.14-17.4c4.03-2.33 7.3-8.57 7.3-13.94v-32.2c0-4-1.81-6.39-4.4-6.39" fill="url(#c)"/>



      <path d="m4259 2038.1-526.79 304.14c-18.5 10.68-33.49 39.31-33.49 63.97v117.51c0 18.35 8.31 29.32 20.19 29.32 4.08 0 8.57-1.29 13.3-4.02l526.79-304.14v-206.78m-67.73 165.83c-2.6 0-4.41-2.4-4.41-6.4v-32.19c0-5.37 3.27-11.61 7.3-13.95l30.14-17.4c1.03-0.59 2.01-0.87 2.9-0.87 2.59 0 4.4 2.39 4.4 6.39v32.19c0 5.38-3.27 11.63-7.3 13.95l-30.14 17.4c-1.03 0.6-2.01 0.88-2.89 0.88" fill="url(#j)"/>



      <path d="m4227.2 2133.1c-0.89 0-1.87 0.28-2.9 0.87l-30.14 17.4c-4.03 2.34-7.3 8.58-7.3 13.95v32.19c0 4 1.81 6.4 4.41 6.4 0.88 0 1.86-0.28 2.89-0.88l30.14-17.4c4.03-2.32 7.3-8.57 7.3-13.95v-32.19c0-4-1.81-6.39-4.4-6.39" fill="url(#l)"/>



      <path d="m4243.8 1622.3-511.63 295.39c-18.5 10.67-33.49 39.32-33.49 63.97v117.51c0 18.36 8.31 29.33 20.2 29.33 4.07 0 8.57-1.3 13.29-4.02l526.79-304.15v-58.19s1.83-59.78-15.16-139.84m-52.58 157.08c-2.59 0-4.4-2.39-4.4-6.4v-32.19c0-5.37 3.27-11.61 7.3-13.94l30.14-17.4c1.03-0.6 2.01-0.88 2.9-0.88 2.59 0 4.4 2.39 4.4 6.4v32.18c0 5.39-3.27 11.63-7.3 13.95l-30.14 17.4c-1.03 0.6-2.01 0.88-2.9 0.88" fill="url(#j)"/>



      <path d="m4227.2 1708.6c-0.89 0-1.87 0.28-2.9 0.88l-30.14 17.4c-4.03 2.33-7.3 8.57-7.3 13.94v32.19c0 4.01 1.81 6.4 4.4 6.4 0.89 0 1.87-0.28 2.9-0.88l30.14-17.4c4.03-2.32 7.3-8.56 7.3-13.95v-32.18c0-4.01-1.81-6.4-4.4-6.4" fill="url(#c)"/>



      <path d="m4055.2 1306.7-322.96 186.46c-18.5 10.67-33.49 39.32-33.49 63.98v117.5c0 18.36 8.31 29.33 20.2 29.33 4.07 0 8.57-1.3 13.29-4.02l444.42-256.59c-29.07-49.87-68.36-97.71-121.46-136.66" fill="url(#j)"/>



      <path d="m4058 1682.1v880.71l-326.89 229.23c-165 115.7-331.44 211.79-496.44 286.62l-326.89 148.23-131.98-77.28 146.05-105.91v-689.43s-17.93-562.01 575.12-1210.6c76.28-4.67 142.39 0.97 199.79 14.24l-9.83-31.93 116.12 68.41c10.02 5.38 19.64 11.05 28.89 16.98l1.65 0.97-0.1 0.02c234.24 151.48 224.51 469.69 224.51 469.69" fill="url(#e)"/>



      <path d="m3482.2 2951c-82.64 47.69-165.27 90.29-247.56 127.61l-326.89 148.23-131.98-77.28 146.05-105.91v-416.18l560.38 323.53" fill="url(#f)"/>



      <path d="m3368.3 3013.4-275.47-159.04 226.91-131 275.56 159.09c-75.63 47.88-151.37 91.6-227 130.95" fill="url(#k)"/>



      <path d="m3926 1604.8v880.71l-326.89 229.23c-165 115.72-331.44 211.8-496.44 286.62l-326.89 148.24v-880.72s-17.93-562.01 575.11-1210.6c593.04-36.25 575.11 546.47 575.11 546.47" fill="url(#n)"/>



      <path d="m3698.2 1257.7c-71.35-69.23-172.79-103.78-301.98-102.42-527.36 594.06-522 1105.7-521.89 1110.4l0.05 730.93 187.63-85.09c159.17-72.18 320.85-165.56 480.54-277.54l284.93-199.81v-829.45l0.04-3.03c0.07-2.13 2.84-215.81-129.32-344.03" fill="url(#g)"/>



      <path d="m2473.1 1120.4-201.9 117.47c-17.05 9.83-14.91 27.02 4.76 38.38l192.45 112.12c19.68 11.36 49.44 12.6 66.48 2.76l201.9-117.47c17.04-9.85 14.9-27.02-4.76-38.38l-192.46-112.13c-19.67-11.36-49.43-12.6-66.47-2.75" fill="#e6e6e6"/>



      <path d="m2810.2 1493.8v50.73l-269.39 0.15 1.86 0.06c-21.37 12.34-58.69 10.79-83.37-3.45l7.98 3.33-269.63 0.15v-54.15c-0.61-8.35 4.05-16.41 14.32-22.33l253.21-147.33c21.37-12.34 58.69-10.79 83.37 3.46l241.35 140.62c14.22 8.22 21.1 18.85 20.3 28.76" fill="url(#c)"/>



      <path d="m2504 1553c-15.64-0.37-31.87-4.31-44.69-11.71l7.98 3.33-269.63 0.15v-54.15c-0.61-8.35 4.05-16.41 14.32-22.33l253.21-147.33c10.26-5.92 24.23-8.62 38.69-8.27l0.12 240.31" fill="url(#m)"/>



      <path d="m2228.2 1544.7-30.52 0.02v-54.15c-0.61-8.35 4.05-16.41 14.32-22.33l16.2-9.36v85.82" fill="url(#m)"/>



      <path d="m2470.6 1318.3c18.44-7.9 45.1-7.46 66.65 0.76v70.87h-66.65v-71.63" fill="url(#p)"/>



      <path d="m2465.2 1374.6-253.21 147.34c-21.37 12.33-18.7 33.89 5.98 48.13l241.35 140.62c24.68 14.25 62 15.79 83.37 3.46l253.21-147.33c21.37-12.34 18.69-33.9-5.98-48.13l-241.35-140.63c-24.68-14.24-62-15.79-83.37-3.46" fill="url(#l)"/><g fill="url(#m)">



      <path d="m2461.3 1581.2c-13.2-7.54-34.56-7.44-47.69 0.23-13.14 7.67-13.08 20 0.13 27.54s34.56 7.43 47.7-0.23c13.13-7.68 13.08-20-0.14-27.54"/>



      <path d="m2537.8 1536.5c-13.21-7.54-34.56-7.44-47.7 0.23-13.13 7.67-13.08 20 0.14 27.54 13.2 7.54 34.56 7.43 47.69-0.23 13.14-7.68 13.08-20-0.13-27.54"/>



      <path d="m2614.3 1491.8c-13.21-7.54-34.57-7.44-47.71 0.24-13.13 7.66-13.06 20 0.14 27.54 13.21 7.53 34.57 7.43 47.7-0.24s13.07-20-0.13-27.54"/>



      </g><path d="m5236.2 2146.5s-5.29-109.19-13.6-182.58c-8.31-73.38-185.05 56.37-185.05 56.37v83.55l198.65 42.66" fill="url(#g)"/>



      <path d="m5142.1 787.89c-2.65-6.629-48.44-62.391-94.25-76.321-19.9-6.07-33.29-6.859-42.06-5.808-8.8 1.039-14.24 10.117-11.27 18.468 7.88 22.18 30.46 68.391 87.85 96.84 77.64 38.5 59.73-33.179 59.73-33.179" fill="url(#e)"/>



      <path d="m5157.4 766.47s-17.26-40.481-22.57-74.328c-3.24-20.641 8.09-47.469 17.42-65.243 5.79-11.039 20.47-13.519 29.7-5.136 14.96 13.578 34.01 37.168 37.17 71.047 5.3 57.07 0 67.031 0 67.031l-61.72 6.629" fill="url(#e)"/>



      <path d="m5267.7 1456.3s5.97-71.99 0-151.64c-5.98-79.64-27.36-452.08-31.34-541.67 0 0 1.99-27.129-50.53-21.148-52.51 5.968-48.28 36.089-48.28 36.089s-73.75 0.989-76.06 44.457c-2.33 43.461-75.54 519.09-75.54 690.1l281.75-56.19" fill="url(#bi)"/>



      <path d="m5011.3 1827.9-42.53-260.12-38.7 0.67 3.57 238.37 77.66 21.08" fill="url(#bj)"/>



      <path d="m5029.1 2058.3s-57.39 1.49-77.37-81.47c-19.98-82.95-35.61-186.81-18.23-195.45 52.17-25.9 85.17 4.42 85.17 4.42l10.43 272.5" fill="url(#g)"/>



      <path d="m5012 2054.8c9.79 4.08 20.78 4.63 30.98 1.7 48.9-14.04 232.77-68 263.06-93.91 35.01-29.92-52.5-198.07-51.24-253.2 1.26-55.14 7.48-120.13 12.34-180.07 4.88-59.93 11.47-92.79-37.55-118.27s-132.72-26.66-195.38 21.09c-62.64 47.73-51.28 80.4-48.67 115.05 2.61 34.66 23.94 184.55 22.09 227.1 0 0-22.07 16.27-38.43 44.16-16.35 27.89 12.53 79.15 24.53 112.48 11.99 33.33-6.77 71.45-3.06 98.64 1.91 14 10.86 20.86 21.33 25.23" fill="url(#k)"/>



      <path d="m5070.8 1997.4c-3.88-30.29 23.9-58.79 62.05-63.68s72.22 15.7 76.1 45.98c3.88 30.29-23.91 58.8-62.05 63.69-38.15 4.89-72.23-15.7-76.1-45.99" fill="url(#bm)"/>



      <path d="m5090.4 1994.9c-2.77-21.65 17.08-42.02 44.36-45.52 27.26-3.5 51.61 11.22 54.38 32.87 2.78 21.64-17.08 42.02-44.34 45.52-27.27 3.49-51.62-11.23-54.4-32.87" fill="url(#bn)"/>



      <path d="m5117.6 2066s33.19 27.3 39.71 13.48c6.52-13.83 11.89-73.16 11.89-73.16l-65.9-17.71 10 60.12s-13.2 11.18 4.3 17.27" fill="url(#bo)"/>



      <path d="m5014.5 2131c3.21-54.26 49.79-95.64 104.05-92.44s95.64 49.79 92.43 104.04c-3.2 54.26-49.79 95.65-104.04 92.44-54.26-3.2-95.65-49.78-92.44-104.04" fill="url(#o)"/>



      <path d="m5161.9 2062.2c0.59-3.09 1.14-6.42 1.68-9.81-6.62-34.24-57.86-49.23-57.86-49.23l7.57 45.49s-6.22 5.26-4.46 10.53c20.25 6.4 45.77 12.06 53.07 3.02" fill="url(#bp)"/>



      <path d="m5014.5 2131c3.21-54.26 49.79-95.64 104.05-92.44s95.64 49.79 92.43 104.04c-3.2 54.26-49.79 95.65-104.04 92.44-54.26-3.2-95.65-49.78-92.44-104.04" fill="url(#o)"/>



      <path d="m5355.3 1720.2-11.02-263.36-38.5-3.96-25.06 237.07 74.58 30.25" fill="url(#bq)"/>



      <path d="m5228.7 1742.2c12.75 56.23 37.91 180.48 37.91 180.48l10.76-123.57c-12.42-36.65-23.08-70.3-22.63-89.79 0.74-32.36 3.2-68.13 6.08-104.27l-0.01-0.11s-44.85 81.02-32.11 137.26" fill="url(#g)"/>



      <path d="m5298.7 1968s30.79-11.75 48.21-106.32c17.42-94.56 30.46-189.29-0.61-201.5-31.06-12.2-57.02-21.38-66.15 3.91s-14.79 147.17-15.94 190.99c-1.15 43.83-2.82 104.26 34.49 112.92" fill="url(#f)"/>



      <path d="m5137.5 777.94s-9.14 0.118-21.07 2.168l-14.44 578.96 35.51-581.13" fill="url(#bt)"/>



      <path d="m5193.3 1090.7 20.47 26.75 215.44 124.72c6.91 4.01 12.5 14.72 12.48 23.93l-0.18 176.39 12.39 16.17-11.64 6.74-0.01-0.02c-2.24 1.43-5.2 1.4-8.45-0.49l-244.16-141.36c-6.9-3.99-12.49-14.71-12.48-23.92l0.21-192.08c0.01-5.19 1.78-8.79 4.57-10.25l11.36-6.58" fill="url(#g)"/>



      <path d="m5342.2 1191.8 15.31 8.86 84.02 145.94-0.09 95.85 12.39 16.17-11.64 6.74-0.01-0.02c-2.24 1.43-5.2 1.4-8.45-0.49l-244.16-141.36c-3.64-2.11-6.91-6.1-9.2-10.75l161.83-120.94" fill="url(#f)"/>



      <path d="m5448.4 1451.4 5.5 7.18-11.64 6.74-0.01-0.02c-2.24 1.43-5.2 1.4-8.45-0.49l-4.3-2.49 18.9-10.92" fill="url(#n)"/>



      <path d="m5187.4 1321.9c-5.42-4.43-9.62-12.82-10.2-20.56l23.86-13.78 11.43 19.86-25.09 14.48" fill="url(#k)"/>



      <path d="m5201.2 1316.8 244.15 141.36c6.91 3.99 12.52-0.23 12.53-9.44l0.21-192.09c0.01-9.22-5.58-19.93-12.49-23.93l-244.15-141.36c-6.91-4-12.51 0.23-12.52 9.45l-0.21 192.09c-0.02 9.21 5.58 19.92 12.48 23.92" fill="url(#e)"/>



      <path d="m5343.9 1459.1s10.17-61.48 8.64-81.16c-1.53-19.69-12.07-52.16-20.07-51.48-7.99 0.68-0.26 79.17-14.3 71.36-14.06-7.82-15.53-21.23-21.89-16.5-6.37 4.74 11.1 71.83 6.44 100.92s41.18-23.14 41.18-23.14" fill="url(#bz)"/>



      <path d="m4930.1 1568.5s-10.17-61.47-8.64-81.16 12.07-52.17 20.07-51.47c8 0.68 0.26 79.17 14.3 71.35 14.06-7.82 15.53-21.23 21.89-16.49 6.37 4.73-11.1 71.81-6.44 100.91 4.66 29.09-41.18-23.14-41.18-23.14" fill="url(#ca)"/>



      <path d="m5075 2128.2c-49.36-17.53-58.97-6.84-59.45-6.26-0.45 2.98-0.81 5.99-1 9.05-0.63 10.9 0.6 21.46 3.3 31.45l128.07 17.28s-20.22-33.51-70.92-51.52" fill="url(#cb)"/>



      <path d="m5011 2229c11.64 9.97 53.62 59.28 128.84 47.65 47-7.28 86.62-39.34 95.41-112.5 5.93-49.28-12.17-97.83-45.49-133.72-1.81 0.84-3.67 1.62-5.34 2.71-18.84 12.4-20.87 19.22-20.87 19.28l-4.16 37.33c0.14 5.29 4.09 10.01 9.38 10.34 4.1 0.26 9.06 2.22 13.78 8.4 10.81 14.13 5.82 36.15-15.79 36.98-11.29 0.44-15.65 6.55-17.25 12.28-1.4 4.99-6.65 7.76-11.53 5.99-24.58-8.89-85.14-28.06-124.13-17.02-49.86 14.12-14.48 72.31-2.85 82.28" fill="url(#e)"/>



      <path d="m5067.1 2083.8-30.09 8.27s14.36-22.61 35.35-28.37c20.98-5.76 24.25 11.99 24.25 11.99l-29.51 8.11" fill="url(#cd)"/>



      <path d="m5292.8 1383.2 25.65 14.69-9.64-15.74-12.97-4.78-3.04 5.83" fill="url(#f)"/>



      <path d="m2859.7 949.8c-27.16-15.672-71.18-15.672-98.34 0-27.16 15.679-27.16 41.097 0 56.779 27.16 15.68 71.18 15.68 98.34 0 27.16-15.682 27.16-41.1 0-56.779zm197.75 112.48c-105.59 60.97-276.8 60.97-382.4 0-105.59-60.97-105.59-159.81 0.01-220.78s276.81-60.969 382.4 0c105.6 60.969 105.6 159.8-0.01 220.78" fill="#e6e6e6"/>



      <path d="m3114.5 890.47c-14.12-14.028-31.53-27.25-52.34-39.27-20.82-12.008-43.73-22.07-68.04-30.219l51.69-29.839 77.9-4.012 38.54-22.238-15.72-9.082 29.17-16.848 31.45 18.16 50.98-29.422-51.21-29.57 37.63-21.731 36.51-21.07 45.49 26.262 67.41-38.918-25.73-14.863 43.3-25 25.74 14.851 20.32-11.73-20.47-40.711 65.51-37.821h240.73l-628.86 363.07" fill="#e6e6e6"/>



      <path d="m2858.8 1021c-27.16-15.68-71.19-15.68-98.35 0-27.15 15.68-27.15 41.1 0 56.78 27.16 15.67 71.19 15.67 98.35 0 27.15-15.68 27.15-41.1 0-56.78zm277.87-47.641v73.101l-21.54-12.16c-13.17 17.91-32.35 34.71-57.66 49.32-105.59 60.98-276.8 60.98-382.4 0.01-29.28-16.92-50.41-36.74-63.45-57.86l-15.74 20.69v-73.101c-0.05-40 26.35-80 79.2-110.51 105.6-60.973 276.81-60.973 382.4 0 52.86 30.507 79.24 70.507 79.19 110.51" fill="url(#ch)"/>



      <path d="m2843.6 915.72-116.68 57.519-103.69 68.492c-4.42-5.22-8.3-10.54-11.65-15.96l-15.74 20.69v-73.101c-0.05-40 26.35-80 79.2-110.51 47.03-27.161 107.09-42.192 168.56-45.153v98.02" fill="url(#ci)"/>



      <path d="m2859.7 1044.4c-27.16-15.67-71.18-15.67-98.34 0-27.16 15.68-27.16 41.1 0 56.78s71.18 15.68 98.34 0 27.16-41.1 0-56.78zm197.75 112.48c-105.59 60.97-276.8 60.97-382.4 0-105.59-60.97-105.59-159.81 0.01-220.78 105.6-60.968 276.81-60.968 382.4 0 105.6 60.969 105.6 159.8-0.01 220.78" fill="url(#cj)"/>



      <path d="m2858.8 1021c-27.16-15.68-71.19-15.68-98.35 0-27.15 15.68-27.15 41.1 0 56.78 27.16 15.67 71.19 15.67 98.35 0 27.15-15.68 27.16-41.1 0-56.78zm53.98 97.25h-146.76c-13.42-3.09-26.47-6.83-39.06-11.2v-124.37h185.82v135.57" fill="url(#ck)"/>



      <path d="m2859.7 1044.4c-27.16-15.67-71.18-15.67-98.34 0-27.16 15.68-27.16 41.1 0 56.78s71.18 15.68 98.34 0 27.16-41.1 0-56.78zm175.09 99.39c-93.09 53.74-243.99 53.74-337.06 0-93.08-53.73-93.08-140.86 0-194.6 93.08-53.73 243.98-53.738 337.06 0 93.07 53.74 93.07 140.86 0 194.6" fill="url(#cl)"/>



      <path d="m2697.7 1123.6c93.07 53.73 243.97 53.73 337.06-0.01 42.09-24.3 65.08-55.43 69.1-87.21 4.87 38.5-18.11 77.96-69.1 107.4-93.09 53.74-243.99 53.74-337.06 0-50.99-29.44-73.98-68.89-69.1-107.39 4.02 31.78 27.01 62.9 69.1 87.21" fill="url(#cm)"/>



      <path d="m3114.5 912.37c-14.12-14.031-31.53-27.269-52.34-39.289-20.82-12.012-43.73-22.062-68.04-30.211l51.69-29.851 77.9-4 38.54-22.25-15.72-9.079 29.17-16.832 31.45 18.153 50.98-29.422-51.21-29.57 37.63-21.731 36.51-21.078 45.49 26.258 67.41-38.91-25.73-14.868 43.3-25 25.74 14.868 20.32-11.739-20.47-40.711 65.51-37.828h240.73l-628.86 363.09" fill="url(#cn)"/>



      <path d="m3114.5 965.2c-14.12-14.027-31.53-27.258-52.34-39.277-20.82-12.024-43.73-22.07-68.04-30.211l51.69-29.852 77.9-4 38.54-22.25-15.72-9.089 29.17-16.829 31.45 18.161 50.98-29.43-51.21-29.57 37.63-21.731 36.51-21.082 45.49 26.27 67.41-38.918-25.73-14.86 43.3-25 25.74 14.86 20.32-11.743-20.47-40.707 65.51-37.832h240.73l-628.86 363.09" fill="url(#co)"/>



      <path d="m3743.4 549.28v52.828h-240.73v-52.828h240.73" fill="url(#cp)"/>



      <path d="m3411.6 624.69v52.84l25.74 14.86v-52.832l-25.74-14.868" fill="url(#cq)"/>



      <path d="m3368.2 702.53v-52.84l43.3-25v52.84l-43.3 25" fill="url(#cr)"/>



      <path d="m3326.6 756.31v-52.84l-45.49-26.258v52.828l45.49 26.27" fill="url(#cs)"/>



      <path d="m3206.9 772.85v-52.832l74.14-42.809v52.828l-74.14 42.813" fill="url(#ct)"/>



      <path d="m3437.3 639.56-0.15-52.45 65.51-37.828v52.828l-65.36 37.45" fill="url(#cu)"/>



      <path d="m3175.7 813.69v-52.832l-29.17 16.832v52.829l29.17-16.829" fill="url(#cv)"/>



      <path d="m3045.8 865.86v-52.839l77.9-4v52.839l-77.9 4" fill="url(#cw)"/>



      <path d="m3579.1 639.56-460.42 266.05 25.58 14.782 485.72-280.67-50.88-0.16" fill="url(#cx)"/>



      <path d="m3144.3 907.58 463.7-267.94 22.02 0.078-485.72 280.67-25.58-14.782 11.07-6.398 14.51 8.371" fill="url(#cy)"/>



      <path d="m3045.8 813.02v52.839l-51.69 29.852v-52.84l51.69-29.851" fill="url(#cz)"/>



      <path d="m3207.2 831.85v-52.84l-31.45-18.153v52.832l31.45 18.161" fill="url(#da)"/>



      <path d="m3034.8 1143.8c-52.31 30.19-122.87 43.42-191.17 39.68v-20.18c68.3 3.74 138.86-9.49 191.17-39.69 42.09-24.3 65.08-55.43 69.1-87.21 4.87 38.5-18.11 77.96-69.1 107.4" fill="url(#db)"/>



      <path d="m5451.4 2359-209.99 122.18c-17.73 10.23-15.51 28.1 4.96 39.92l200.16 116.62c20.46 11.81 51.41 13.1 69.14 2.86l209.99-122.18c17.72-10.23 15.51-28.1-4.96-39.92l-200.16-116.62c-20.46-11.82-51.42-13.1-69.14-2.86" fill="#e6e6e6"/>



      <path d="m5789.8 2737.9v50.72l-269.39 0.15 1.86 0.06c-21.37 12.34-58.69 10.79-83.37-3.45l7.98 3.33-269.63 0.14v-54.14c-0.61-8.35 4.05-16.41 14.32-22.34l253.21-147.32c21.37-12.34 58.69-10.8 83.37 3.45l241.34 140.62c14.24 8.22 21.11 18.86 20.31 28.78" fill="url(#e)"/>



      <path d="m5483.6 2797.1c-15.64-0.38-31.87-4.32-44.69-11.72l7.98 3.33-269.63 0.14v-54.14c-0.61-8.35 4.05-16.41 14.32-22.34l253.21-147.32c10.26-5.93 24.23-8.62 38.69-8.27l0.12 240.32" fill="url(#k)"/>



      <path d="m5207.8 2788.8-30.52 0.02v-54.14c-0.61-8.35 4.05-16.41 14.32-22.34l16.2-9.35v85.81" fill="url(#f)"/>



      <path d="m5450.2 2562.4c18.44-7.89 45.1-7.45 66.65 0.76v70.88h-66.65v-71.64" fill="url(#g)"/>



      <path d="m5444.8 2618.7-253.21 147.32c-21.37 12.33-18.7 33.89 5.98 48.14l241.35 140.61c24.68 14.25 62 15.79 83.37 3.46l253.21-147.33c21.37-12.33 18.69-33.88-5.99-48.13l-241.34-140.62c-24.68-14.24-62-15.79-83.37-3.45" fill="url(#n)"/><g fill="url(#f)">



      <path d="m5425.5 2826.2c-13.21-7.55-34.57-7.44-47.7 0.22-13.14 7.68-13.07 20 0.13 27.54 13.22 7.55 34.57 7.44 47.71-0.22 13.12-7.68 13.07-20-0.14-27.54"/>



      <path d="m5502 2781.5c-13.21-7.55-34.56-7.44-47.7 0.22-13.13 7.68-13.08 20 0.13 27.54 13.21 7.55 34.57 7.44 47.7-0.22 13.14-7.68 13.08-20-0.13-27.54"/>



      <path d="m5578.5 2736.9c-13.2-7.55-34.56-7.44-47.7 0.24-13.13 7.66-13.07 19.99 0.14 27.52 13.2 7.55 34.56 7.45 47.7-0.22 13.13-7.68 13.07-20-0.14-27.54"/>



      </g><g transform="matrix(3.0276 -1.7969 0 -3.0276 2141.8 3307.5)" fill="url(#d)">
        



        <g transform="matrix(.67622 0 0 .67622 -9.2161 105.57)" fill="url(#d)">
          



          



          <g transform="matrix(1.2268,0,0,1.2268,614.74,32.748)" fill="url(#d)">
            <g transform="matrix(.32619 0 0 -.32619 -56.243 -21.966)">
              <path transform="translate(-1507.7,-4409.1)" d="m1646.3 4084.2-432.37 424.99c-5 4.91-7.79 11.62-7.76 18.62l0.66 153.76c0.23 53.1 64.23 79.77 102.09 42.55l492.54-484.14c10.29-10.11 10.36-26.67 0.16-36.86l-118.78-118.76c-10.07-10.08-26.38-10.15-36.54-0.16" fill="url(#d)" stroke-linecap="round" paint-order="stroke"/>



            </g>



            <g transform="matrix(.32619 0 0 -.32619 78.858 -56.828)">
              <path transform="translate(-1921.7,-4514.3)" d="m1894.8 4296.4 210.2 210.21c4.89 4.89 7.63 11.54 7.6 18.46l-0.66 154.79c-0.22 53.35-64.73 79.91-102.46 42.18l-271.18-271.18c-10.2-10.2-10.13-26.76 0.16-36.87l119.79-117.74c10.16-9.99 26.47-9.92 36.55 0.15" fill="url(#d)" stroke-linecap="round" paint-order="stroke"/>



            </g>



            <g transform="matrix(.32619 0 0 -.32619 105.3 102.32)">
              <path transform="matrix(9.1545,0,0,-9.1545,-2490.2,2293.6)" d="m187.89 213.32c-1.4776-0.0288-2.9102 1.113-2.9102 2.8418v39.564c0 0.75154 0.2981 1.4719 0.83007 2.0039l11.998 11.998c4.1302 4.1302 11.191 1.2041 11.191-4.6367l-2e-3 -15.373c0-0.0178-6e-3 -0.0349-6e-3 -0.0527 4.3e-4 -0.0321 8e-3 -0.0615 8e-3 -0.0937l-2e-3 -15.375c0-0.76028-0.30475-1.4884-0.84765-2.0215l-18.348-18.035c-0.56017-0.55095-1.2404-0.80722-1.9121-0.82031zm93.211 0.29688c-0.67392 0.0169-1.3559 0.27586-1.9141 0.83398l-18.35 18.35c-0.53089 0.53198-0.83008 1.2532-0.83008 2.0059v14.586c0 0.22726 0.03 0.44197 0.0508 0.66015-0.0303 0.16652-0.0508 0.33613-0.0508 0.50782v14.586c0 5.8408 7.0612 8.765 11.191 4.6348l11.998-11.996c0.53089-0.53089 0.83008-1.2532 0.83008-2.0059v-39.322c0-1.7363-1.4432-2.877-2.9258-2.8398z" fill="url(#d)"/>



            </g>



            



          </g>



        </g>



      </g></g>



</svg>
