<svg width="30mm" height="30mm" version="1.1" viewBox="0 0 30 30" xmlns="http://www.w3.org/2000/svg">
 <g transform="translate(2.9522 -70.125)">
  <g transform="matrix(.026458 0 0 .026444 -1.0447 70.397)" fill="#fff">
   <g id="logo-logo" transform="matrix(2.5558 0 0 2.5558 512 512)" fill="#fff">
    <g transform="translate(1.9467e-6 1.1413e-6)" fill="#fff">
     <g transform="matrix(.32619 0 0 -.32619 -56.243 -21.966)">
      <path transform="translate(-1507.7 -4409.1)" d="m1646.3 4084.2-432.37 424.99c-5 4.91-7.79 11.62-7.76 18.62l0.66 153.76c0.23 53.1 64.23 79.77 102.09 42.55l492.54-484.14c10.29-10.11 10.36-26.67 0.16-36.86l-118.78-118.76c-10.07-10.08-26.38-10.15-36.54-0.16" fill="#fff" stroke-linecap="round" paint-order="stroke"/>
     </g>
     <g transform="matrix(.32619 0 0 -.32619 78.858 -56.828)">
      <path transform="translate(-1921.7 -4514.3)" d="m1894.8 4296.4 210.2 210.21c4.89 4.89 7.63 11.54 7.6 18.46l-0.66 154.79c-0.22 53.35-64.73 79.91-102.46 42.18l-271.18-271.18c-10.2-10.2-10.13-26.76 0.16-36.87l119.79-117.74c10.16-9.99 26.47-9.92 36.55 0.15" fill="#fff" stroke-linecap="round" paint-order="stroke"/>
     </g>
     <g transform="matrix(.32619 0 0 -.32619 105.3 102.32)">
      <path transform="translate(-2002.7 -4170.7)" d="m1892.8 4170.5v-133.53c0-53.47 64.65-80.25 102.46-42.44l109.83 109.83c4.86 4.86 7.6 11.46 7.6 18.35v215.78c0 23.12-27.96 34.7-44.31 18.35l-167.98-167.98c-4.86-4.87-7.6-11.47-7.6-18.36m0 144.21v-133.53c0-53.47 64.65-80.25 102.46-42.44l109.83 109.83c4.86 4.86 7.6 11.46 7.6 18.35v215.78c0 23.12-27.96 34.7-44.31 18.35l-167.98-167.98c-4.86-4.87-7.6-11.47-7.6-18.36" fill="#fff"/>
     </g>
     <g transform="matrix(.32619 0 0 -.32619 -118.73 101.45)">
      <path transform="translate(-1316 -4172.9)" d="m1206.1 4342.8v-220.12c0-6.88 2.73-13.48 7.6-18.35l109.83-109.83c37.81-37.81 102.46-11.03 102.46 42.44l-0.01 140.75c0 6.96-2.79 13.63-7.76 18.51l-167.97 165.11c-16.41 16.14-44.15 4.51-44.15-18.51m0 142.08v-220.12c0-6.88 2.73-13.48 7.6-18.35l109.83-109.83c37.81-37.81 102.46-11.03 102.46 42.44l-0.01 140.75c0 6.96-2.79 13.63-7.76 18.51l-167.97 165.11c-16.41 16.14-44.15 4.51-44.15-18.51" fill="#fff"/>
     </g>
    </g>
   </g>
  </g>
 </g>
</svg>
