<svg width="89.375mm" height="28.912mm" version="1.1" viewBox="0 0 89.375 28.912" xmlns="http://www.w3.org/2000/svg">
 <g transform="matrix(.077019 0 0 .077019 2.7573 -21.567)">
  <g transform="matrix(7.0819 0 0 7.0819 351.98 -849.14)">
   <g transform="matrix(1.1404 0 0 1.1404 -30.213 60.934)" fill="#2c2c36" style="font-variant-caps:normal;font-variant-east-asian:normal;font-variant-ligatures:normal;font-variant-numeric:normal;shape-inside:url(#rect12)">
    <g transform="translate(-4.9174 -10.537)" fill="#2c2c36">
     <path d="m30.79 129.05q-0.254 0-0.4318-0.1524-0.1524-0.1778-0.1524-0.4318v-16.586q0-0.2794 0.1524-0.4318 0.1524-0.1778 0.4318-0.1778h1.1938q0.4572 0 0.635 0.381l5.4102 10.389 5.461-10.389q0.2032-0.381 0.6096-0.381h1.1938q0.2794 0 0.4318 0.1778 0.1524 0.1524 0.1524 0.4318v16.586q0 0.254-0.1778 0.4318-0.1524 0.1524-0.4064 0.1524h-1.1684q-0.254 0-0.4064-0.1524-0.1524-0.1778-0.1524-0.4318v-12.624l-4.3434 8.4074q-0.254 0.5334-0.8128 0.5334h-0.762q-0.5334 0-0.8128-0.5334l-4.318-8.4074v12.624q0 0.254-0.1778 0.4318-0.1524 0.1524-0.4064 0.1524z" style="font-variant-caps:normal;font-variant-east-asian:normal;font-variant-ligatures:normal;font-variant-numeric:normal"/>
     <path d="m56.697 129.3q-3.302 0-5.1054-1.7272-1.8034-1.7526-1.905-5.2578-0.0254-0.762-0.0254-2.159t0.0254-2.1336q0.1016-3.4544 1.9558-5.2324 1.8796-1.778 5.0546-1.778t5.0292 1.778 1.9558 5.2324q0.0508 1.4732 0.0508 2.1336 0 0.635-0.0508 2.159-0.1016 3.5052-1.905 5.2578-1.778 1.7272-5.08 1.7272zm0-2.1082q2.032 0 3.2512-1.2192 1.2192-1.2446 1.3208-3.7846 0.0508-1.524 0.0508-2.032 0-0.5588-0.0508-2.032-0.1016-2.54-1.3208-3.7846t-3.2512-1.2446-3.2766 1.2446q-1.2192 1.2446-1.2954 3.7846-0.0254 0.7366-0.0254 2.032 0 1.27 0.0254 2.032 0.0762 2.54 1.2954 3.7846 1.2192 1.2192 3.2766 1.2192z" style="font-variant-caps:normal;font-variant-east-asian:normal;font-variant-ligatures:normal;font-variant-numeric:normal"/>
     <path d="m68.071 129.05q-0.254 0-0.4064-0.1524-0.1524-0.1778-0.1524-0.4318v-16.586q0-0.2794 0.1524-0.4318 0.1524-0.1778 0.4064-0.1778h6.1976q2.8956 0 4.5212 1.3716 1.651 1.3462 1.651 3.937 0 1.9304-0.9652 3.175t-2.6924 1.7272l3.9116 6.7818q0.0762 0.1524 0.0762 0.2794 0 0.2032-0.1524 0.3556t-0.3556 0.1524h-1.1176q-0.381 0-0.6096-0.1778-0.2032-0.1778-0.381-0.508l-3.7338-6.5024h-4.5212v6.604q0 0.254-0.1778 0.4318-0.1778 0.1524-0.4318 0.1524zm6.096-9.271q3.8354 0 3.8354-3.2258t-3.8354-3.2258h-4.2672v6.4516z" style="font-variant-caps:normal;font-variant-east-asian:normal;font-variant-ligatures:normal;font-variant-numeric:normal"/>
     <path d="m84.69 129.05q-0.254 0-0.4064-0.1524-0.1524-0.1778-0.1524-0.4318v-16.586q0-0.2794 0.1524-0.4318 0.1524-0.1778 0.4064-0.1778h10.312q0.2794 0 0.4318 0.1778 0.1778 0.1524 0.1778 0.4318v0.9398q0 0.254-0.1778 0.4318-0.1524 0.1524-0.4318 0.1524h-8.509v6.0198h8.001q0.2794 0 0.4318 0.1778 0.1778 0.1524 0.1778 0.4064v0.9652q0 0.254-0.1778 0.4318-0.1778 0.1524-0.4318 0.1524h-8.001v6.9088q0 0.254-0.1778 0.4318-0.1778 0.1524-0.4318 0.1524z" style="font-variant-caps:normal;font-variant-east-asian:normal;font-variant-ligatures:normal;font-variant-numeric:normal"/>
     <path d="m99.523 129.05q-0.254 0-0.4064-0.1524-0.1524-0.1778-0.1524-0.4318v-16.612q0-0.254 0.1524-0.4064 0.1524-0.1778 0.4064-0.1778h1.27q0.2794 0 0.4318 0.1524t0.1524 0.4318v16.612q0 0.254-0.1778 0.4318-0.1524 0.1524-0.4064 0.1524z" style="font-variant-caps:normal;font-variant-east-asian:normal;font-variant-ligatures:normal;font-variant-numeric:normal"/>
     <path d="m104.77 129.05q-0.2032 0-0.3556-0.1524t-0.1524-0.3556q0-0.1778 0.1016-0.3302l5.8166-8.2042-5.5372-7.8994q-0.1016-0.1524-0.1016-0.3302 0-0.2032 0.1524-0.3556t0.3556-0.1524h1.4478q0.3556 0 0.6604 0.4318l4.5466 6.4262 4.4958-6.4262q0.254-0.4318 0.6604-0.4318h1.3462q0.2032 0 0.3556 0.1524t0.1524 0.3556q0 0.1778-0.1016 0.3302l-5.4864 7.9248 5.8166 8.1788q0.1016 0.1524 0.1016 0.3302 0 0.2032-0.1778 0.3556-0.1524 0.1524-0.3556 0.1524h-1.4478q-0.381 0-0.6604-0.4064l-4.8006-6.7056-4.7752 6.7056q-0.2794 0.4064-0.6604 0.4064z" style="font-variant-caps:normal;font-variant-east-asian:normal;font-variant-ligatures:normal;font-variant-numeric:normal"/>
    </g>
   </g>
   <g id="logo-logo" transform="matrix(.11717 0 0 .11717 -27.475 183.89)">
    <g transform="translate(1.9467e-6 1.1413e-6)">
     <g fill="#2c2c36">
      <g transform="matrix(.32619 0 0 -.32619 -56.243 -21.966)">
       <path transform="translate(-1507.7 -4409.1)" d="m1646.3 4084.2-432.37 424.99c-5 4.91-7.79 11.62-7.76 18.62l0.66 153.76c0.23 53.1 64.23 79.77 102.09 42.55l492.54-484.14c10.29-10.11 10.36-26.67 0.16-36.86l-118.78-118.76c-10.07-10.08-26.38-10.15-36.54-0.16" fill="#2c2c36" stroke-linecap="round"/>
      </g>
      <g transform="matrix(.32619 0 0 -.32619 78.858 -56.828)">
       <path transform="translate(-1921.7 -4514.3)" d="m1894.8 4296.4 210.2 210.21c4.89 4.89 7.63 11.54 7.6 18.46l-0.66 154.79c-0.22 53.35-64.73 79.91-102.46 42.18l-271.18-271.18c-10.2-10.2-10.13-26.76 0.16-36.87l119.79-117.74c10.16-9.99 26.47-9.92 36.55 0.15" fill="#2c2c36" stroke-linecap="round"/>
      </g>
      <g transform="matrix(.32619 0 0 -.32619 105.3 102.32)">
       <path transform="translate(-2002.7 -4170.7)" d="m1892.8 4170.5v-133.53c0-53.47 64.65-80.25 102.46-42.44l109.83 109.83c4.86 4.86 7.6 11.46 7.6 18.35v215.78c0 23.12-27.96 34.7-44.31 18.35l-167.98-167.98c-4.86-4.87-7.6-11.47-7.6-18.36m0 144.21v-133.53c0-53.47 64.65-80.25 102.46-42.44l109.83 109.83c4.86 4.86 7.6 11.46 7.6 18.35v215.78c0 23.12-27.96 34.7-44.31 18.35l-167.98-167.98c-4.86-4.87-7.6-11.47-7.6-18.36" fill="#2c2c36"/>
      </g>
      <g transform="matrix(.32619 0 0 -.32619 -118.73 101.45)">
       <path transform="translate(-1316 -4172.9)" d="m1206.1 4342.8v-220.12c0-6.88 2.73-13.48 7.6-18.35l109.83-109.83c37.81-37.81 102.46-11.03 102.46 42.44l-0.01 140.75c0 6.96-2.79 13.63-7.76 18.51l-167.97 165.11c-16.41 16.14-44.15 4.51-44.15-18.51m0 142.08v-220.12c0-6.88 2.73-13.48 7.6-18.35l109.83-109.83c37.81-37.81 102.46-11.03 102.46 42.44l-0.01 140.75c0 6.96-2.79 13.63-7.76 18.51l-167.97 165.11c-16.41 16.14-44.15 4.51-44.15-18.51" fill="#2c2c36"/>
      </g>
     </g>
    </g>
   </g>
  </g>
 </g>
</svg>
