<svg version="1" xmlns="http://www.w3.org/2000/svg" width="933.333" height="933.333" viewBox="0 0 700.000000 700.000000"><path d="M142.3 117.1c-9.1 1.7-17.2 7.7-21.9 16.1l-2.9 5.3-.3 45.4c-.2 30.9.1 46.3.8 48.1.6 1.4 21.4 22.6 46.3 47s70.9 69.6 102.2 100.5c78.2 76.8 78.6 77.2 82 78.5 7 2.7 7.7 2.2 42.8-32.8 18.1-18 33.5-33.9 34.3-35.4 1.7-3.3 1.8-7.8.3-11.2-1-2.1-78.8-79.1-232.6-229.9-21.8-21.4-28.4-27.3-32.6-29.1-6.1-2.8-12.5-3.6-18.4-2.5zM546.9 117c-2.5.4-6.5 1.8-9 3-3.1 1.5-25.8 23.6-76.2 73.8-39.5 39.5-72.5 72.9-73.3 74.4-1.8 3.4-1.8 9.1 0 12.6.8 1.5 16.1 17 34 34.5 34.7 34 36.1 35 42.9 32.8 2.3-.8 20.4-18.3 59.7-57.5 31-31.1 56.7-57.2 57.2-58 .5-.9.7-22.2.6-47.3l-.3-45.8-2.8-5.7c-5.9-12-19.5-19-32.8-16.8zM126.5 308.7c-1 .3-3 1.2-4.3 2.1-5.4 3.5-5.2-.8-5.2 104.5v97.4l2.9 3.9c1.6 2.1 16.1 17 32.2 33 27.2 27 29.8 29.3 35.4 31.3 15.4 5.8 32.3-.9 39.6-15.7l2.4-4.7.3-78.2c.2-67.7.1-78.7-1.2-81.2-1.9-3.7-88.7-89-92.9-91.4-3.1-1.7-5.4-1.9-9.2-1zM562.4 312.1c-4.6 3.4-88.4 88.1-90.5 91.4-1.8 2.9-1.9 6.5-1.9 78.1 0 83.8-.2 81.2 7 90.2 5.8 7.4 13.9 11.2 23.9 11.2 13.2 0 14.3-.8 48.9-35.3 16.7-16.6 31-31.4 31.8-32.9 1.2-2.3 1.4-17.6 1.4-99.9v-97.1l-3.9-3.9c-3.5-3.5-4.4-3.9-8.8-3.9-3.6 0-5.9.6-7.9 2.1z"/></svg>